# xmcd CD database file
#
# Track frame offsets:
#	150
#	15093
#	27433
#	40963
#	51713
#	66543
#	84135
#	98113
#	113813
#	129613
#	141065
#	154260
#
# Disc length: 2208 seconds
#
# Revision: 0
# Processed by: cddbd v1.4PL0 Copyright (c) Steve Scherf et al.
# Submitted via: CDex 1.50
#
DISCID=9f089e0c
DTITLE=Various Artist - All Star Country Dance
DYEAR=1994
DGENRE=Country
TTITLE0=Willie Nelson_Nothing I Can Do About It
TTITLE1=Jani Frickie_She's Single Again
TTITLE2=Shenandoah_The Church On The Cumberland Road
TTITLE3=Mickey Gilly_Lawdy Miss Clawdy
TTITLE4=Rodney Crowell_EI Couldn't Leave You If I Tried
TTITLE5=Exile_I Got Love
TTITLE6=Marty Stuart_Arlene
TTITLE7=Lacy J. Dalton_Takin' It Easy
TTITLE8=Rickey Skagges_Honey Open That Door
TTITLE9=Sweethearts Of The Rodeo_Hey Doll Baby
TTITLE10=Larry Gatlin_Houston
TTITLE11=Patsy Cline_Walkin' After Midnight
EXTD=YEAR: 1994
EXTT0=
EXTT1=
EXTT2=
EXTT3=
EXTT4=
EXTT5=
EXTT6=
EXTT7=
EXTT8=
EXTT9=
EXTT10=
EXTT11=
PLAYORDER=
